<?xml version="1.0" standalone="no"?><!DOCTYPE svg PUBLIC "-//W3C//DTD SVG 1.1//EN" "http://www.w3.org/Graphics/SVG/1.1/DTD/svg11.dtd"><svg t="1624562458547" class="icon" viewBox="0 0 1024 1024" version="1.1" xmlns="http://www.w3.org/2000/svg" p-id="841" xmlns:xlink="http://www.w3.org/1999/xlink" width="200" height="200"><defs><style type="text/css"></style></defs><path d="M670 169.8l-32.8 32.8-78.7 78.7-95.2 95.2-82.3 82.3c-13.3 13.3-26.9 26.3-39.9 39.9l-0.6 0.6c-6.9 6.9-6.9 18.6 0 25.5l32.8 32.8 78.7 78.7 95.2 95.2 82.3 82.3c13.3 13.3 26.3 26.9 39.9 39.9l0.6 0.6c6.7 6.7 18.9 7.2 25.5 0 6.6-7.2 7.1-18.3 0-25.5L662.7 796 584 717.3l-95.2-95.2-82.3-82.3c-13.2-13.2-26.1-27.2-39.9-39.9l-0.6-0.6v25.5l32.8-32.8 78.7-78.7 95.2-95.2 82.3-82.3c13.3-13.3 26.9-26.3 39.9-39.9l0.6-0.6c6.7-6.7 7.2-18.9 0-25.5-7.2-6.6-18.4-7.2-25.5 0z" p-id="842" fill="#2c2c2c"></path></svg>